<?xml version="1.0" standalone="no"?>
<!DOCTYPE svg PUBLIC "-//W3C//DTD SVG 20010904//EN"
 "http://www.w3.org/TR/2001/REC-SVG-20010904/DTD/svg10.dtd">
<svg version="1.0" xmlns="http://www.w3.org/2000/svg"
 width="500.000000pt" height="500.000000pt" viewBox="0 0 500.000000 500.000000"
 preserveAspectRatio="xMidYMid meet">
<metadata>
Created by potrace 1.14, written by Peter Selinger 2001-2017
</metadata>
<g transform="translate(0.000000,500.000000) scale(0.100000,-0.100000)"
fill="#000000" stroke="none">
<path d="M2475 3848 c-209 -26 -367 -152 -415 -333 -8 -27 -22 -56 -32 -63
-31 -22 -45 -64 -47 -137 -2 -38 -5 -72 -7 -74 -3 -3 -55 -6 -117 -7 -187 -3
-302 -49 -423 -169 -44 -44 -116 -149 -112 -165 1 -3 -5 -16 -12 -30 -8 -14
-15 -27 -15 -30 -4 -16 -16 -79 -19 -100 -3 -14 -5 -46 -5 -72 -1 -41 -4 -47
-28 -56 -38 -13 -77 -55 -89 -94 -6 -20 -10 -180 -10 -394 l1 -361 25 -49 c50
-98 137 -150 258 -153 32 -1 32 -1 32 -51 0 -40 -3 -50 -17 -51 -10 -1 -54 -2
-99 -3 -94 -1 -137 -20 -174 -73 -35 -51 -33 -129 4 -177 54 -71 -21 -66 1068
-66 651 1 998 4 1028 11 25 6 54 13 66 15 70 13 204 79 279 137 90 69 178 173
225 266 17 34 21 56 18 92 -6 54 -41 115 -73 123 -11 3 -20 4 -21 3 0 -1 -7 3
-15 9 -19 16 -93 9 -129 -13 -16 -9 -46 -44 -67 -78 -100 -163 -246 -244 -447
-248 l-99 -2 -3 53 -4 52 38 0 c54 0 118 22 157 53 36 28 102 117 88 117 -4 0
-3 4 2 8 6 4 23 45 39 92 15 47 30 92 33 100 4 8 7 20 9 25 1 6 14 44 28 85
37 108 33 165 -17 219 -33 35 -63 44 -157 45 -80 2 -86 3 -97 26 -6 14 -13 36
-15 50 -2 14 -11 40 -21 59 -9 19 -17 38 -17 43 0 10 -52 92 -62 96 -4 2 3 22
15 45 27 51 33 171 12 214 -8 16 -17 40 -20 54 -6 23 -3 27 25 33 99 19 157
137 113 228 -18 38 -51 67 -95 85 l-37 15 3 61 c2 68 -22 132 -56 143 -25 8
-22 27 6 40 17 8 29 8 42 0 34 -19 105 -17 148 4 111 54 123 206 22 282 -43
32 -137 35 -184 6 -29 -18 -37 -19 -60 -8 -135 61 -312 87 -467 68z m-283
-2261 c15 -15 33 -27 40 -27 18 1 48 25 48 39 0 13 -1 13 78 15 44 1 62 -2 62
-11 0 -30 44 -42 149 -41 68 0 106 -4 111 -12 7 -12 3 -81 -6 -89 -3 -3 -205
-6 -450 -6 l-444 0 0 55 0 55 107 -2 c125 -3 136 -1 152 31 11 20 20 23 69 22
48 -1 61 -6 84 -29z"/>
</g>
</svg>
